<svg width="24" height="24" viewBox="0 0 24 24" fill="none" xmlns="http://www.w3.org/2000/svg">
<path d="M21.75 6.69113V17.3089H23.25V6.69113H21.75ZM2.25 17.3089V6.69113H0.75V17.3089H2.25ZM20.7454 18.4137C14.9283 18.9677 9.07171 18.9677 3.25462 18.4137L3.1124 19.907C9.02409 20.47 14.9759 20.47 20.8876 19.907L20.7454 18.4137ZM3.25462 5.58629C9.07171 5.03228 14.9283 5.03228 20.7454 5.58629L20.8876 4.09304C14.9759 3.53003 9.02409 3.53003 3.1124 4.09304L3.25462 5.58629ZM0.75 17.3089C0.75 18.6544 1.77294 19.7794 3.1124 19.907L3.25462 18.4137C2.68501 18.3595 2.25 17.8811 2.25 17.3089H0.75ZM21.75 17.3089C21.75 17.8811 21.315 18.3595 20.7454 18.4137L20.8876 19.907C22.2271 19.7794 23.25 18.6544 23.25 17.3089H21.75ZM23.25 6.69113C23.25 5.3456 22.2271 4.22061 20.8876 4.09304L20.7454 5.58629C21.315 5.64054 21.75 6.11894 21.75 6.69113H23.25ZM2.25 6.69113C2.25 6.11894 2.68501 5.64054 3.25462 5.58629L3.1124 4.09304C1.77294 4.22061 0.75 5.3456 0.75 6.69113H2.25Z" fill="#0066FF"/>
<path d="M15 11.134C15.6667 11.5189 15.6667 12.4811 15 12.866L11.25 15.0311C10.5833 15.416 9.75 14.9349 9.75 14.1651L9.75 9.83493C9.75 9.06513 10.5833 8.58401 11.25 8.96891L15 11.134Z" stroke="#0066FF" stroke-width="1.5"/>
</svg>
