<svg width="24" height="24" viewBox="0 0 24 24" fill="none" xmlns="http://www.w3.org/2000/svg">
<path d="M1.5 6.69113C1.5 5.73227 2.22897 4.93057 3.18351 4.83967C9.0479 4.28115 14.9521 4.28115 20.8165 4.83967C21.771 4.93057 22.5 5.73227 22.5 6.69113V17.3089C22.5 18.2677 21.771 19.0694 20.8165 19.1603C14.9521 19.7188 9.0479 19.7188 3.18351 19.1603C2.22897 19.0694 1.5 18.2677 1.5 17.3089V6.69113Z" fill="#0066FF"/>
<path d="M21.75 6.69113V17.3089H23.25V6.69113H21.75ZM2.25 17.3089V6.69113H0.75V17.3089H2.25ZM20.7454 18.4137C14.9283 18.9677 9.07171 18.9677 3.25462 18.4137L3.1124 19.907C9.02409 20.47 14.9759 20.47 20.8876 19.907L20.7454 18.4137ZM3.25462 5.58629C9.07171 5.03228 14.9283 5.03228 20.7454 5.58629L20.8876 4.09304C14.9759 3.53003 9.02409 3.53003 3.1124 4.09304L3.25462 5.58629ZM0.75 17.3089C0.75 18.6544 1.77294 19.7794 3.1124 19.907L3.25462 18.4137C2.68501 18.3595 2.25 17.8811 2.25 17.3089H0.75ZM21.75 17.3089C21.75 17.8811 21.315 18.3595 20.7454 18.4137L20.8876 19.907C22.2271 19.7794 23.25 18.6544 23.25 17.3089H21.75ZM23.25 6.69113C23.25 5.3456 22.2271 4.22061 20.8876 4.09304L20.7454 5.58629C21.315 5.64054 21.75 6.11894 21.75 6.69113H23.25ZM2.25 6.69113C2.25 6.11894 2.68501 5.64054 3.25462 5.58629L3.1124 4.09304C1.77294 4.22061 0.75 5.3456 0.75 6.69113H2.25Z" fill="#0066FF"/>
<path d="M8 12L11 14.5L16 9.5" stroke="white" stroke-width="1.5" stroke-linecap="round" stroke-linejoin="round"/>
</svg>
