<svg width="72" height="116" viewBox="0 0 72 116" fill="none" xmlns="http://www.w3.org/2000/svg">
<path d="M26.7567 34.5255L21.7246 38.1794C21.4251 38.4 21.2021 38.709 21.0871 39.0629C20.9722 39.4167 20.9709 39.7977 21.0836 40.1523L23.0067 46.064C23.1221 46.4208 23.3484 46.7314 23.6527 46.9505C23.957 47.1696 24.3233 47.2858 24.6983 47.282H30.9163C31.288 47.2795 31.6497 47.1607 31.9505 46.9423C32.2513 46.7238 32.4762 46.4167 32.5936 46.064L34.5132 40.1523C34.6258 39.7977 34.6246 39.4167 34.5096 39.0629C34.3947 38.709 34.1717 38.4 33.8721 38.1794L28.8294 34.5255C28.5271 34.3092 28.1647 34.1929 27.7931 34.1929C27.4214 34.1929 27.059 34.3092 26.7567 34.5255V34.5255Z" stroke="#0066FF" stroke-linecap="round" stroke-linejoin="round"/>
<path d="M27.1449 34.312L30.6278 32.3996C30.9094 32.275 31.2188 32.2266 31.5251 32.2591C31.8313 32.2916 32.1236 32.4039 32.3728 32.5848L37.4014 36.2422C37.7032 36.4601 37.928 36.7683 38.0432 37.1223C38.1584 37.4763 38.1581 37.8578 38.0424 38.2116L36.1229 44.1269C35.9905 44.5354 35.7131 44.8813 35.3429 45.0991V45.0991L31.7817 47.0436" stroke="#0066FF" stroke-linecap="round" stroke-linejoin="round"/>
<path d="M27.1449 34.312L30.6278 32.3996C30.9095 32.275 31.2188 32.2266 31.5251 32.2591C31.8313 32.2916 33.5 32.8996 34 33.2501M38 39.7501L36.1229 44.1269C35.9905 44.5354 35.7131 44.8813 35.3429 45.0991L31.7817 47.0436" stroke="#0066FF" stroke-width="2" stroke-linecap="round" stroke-linejoin="round"/>
<path d="M37.5545 39.7642H43.7725C44.1442 39.7617 44.5058 39.6429 44.8067 39.4244C45.1075 39.206 45.3324 38.8989 45.4498 38.5462L47.3694 32.6345C47.4854 32.2801 47.4858 31.8981 47.3706 31.5435C47.2554 31.1889 47.0305 30.8801 46.7283 30.6616L41.6998 27.0077C41.3976 26.7914 41.0352 26.675 40.6635 26.675C40.2918 26.675 39.9294 26.7914 39.6272 27.0077L34.5951 30.6616C34.2961 30.8827 34.0739 31.1918 33.9596 31.5457C33.8452 31.8995 33.8446 32.2803 33.9576 32.6345L34.3565 33.8881" stroke="#0066FF" stroke-linecap="round" stroke-linejoin="round"/>
<path d="M26.7567 34.5256L21.7246 38.1795C21.4251 38.4002 21.2021 38.7091 21.0871 39.063C20.9722 39.4168 20.9709 39.7978 21.0836 40.1524L23.0067 46.0642C23.1221 46.4209 23.3484 46.7315 23.6527 46.9506C23.957 47.1697 24.3233 47.2859 24.6983 47.2821H30.9163C31.288 47.2796 31.6497 47.1608 31.9505 46.9424" stroke="#0066FF" stroke-width="2" stroke-linecap="round" stroke-linejoin="round"/>
<path d="M38 39.7641H43.7725M39.6272 27.0076L34.5951 30.6614C34 31.2499 34 32.2499 34 33.2499" stroke="#0066FF" stroke-width="2" stroke-linecap="round" stroke-linejoin="round"/>
<path d="M40.0118 26.8083L43.4983 24.8959C43.7807 24.774 44.0898 24.7272 44.3957 24.7603C44.7015 24.7934 44.9935 24.9051 45.2433 25.0846L50.2754 28.7385C50.575 28.9592 50.7979 29.2681 50.9129 29.622C51.0278 29.9759 51.0291 30.3568 50.9164 30.7115L48.9933 36.6232C48.8622 37.0313 48.586 37.3772 48.217 37.5954L44.6557 39.5398C44.4371 39.4698 44.6557 39.7001 43.5 39.75" stroke="#0066FF" stroke-width="2" stroke-linecap="round" stroke-linejoin="round"/>
<path d="M37.6364 39.5043L41.2475 37.3675C41.2475 37.3675 43.2383 36.0178 42.6257 33.7315C41.9954 31.3632 39.6699 30.9287 37.8679 31.8404L34.2852 33.9772" stroke="#0066FF" stroke-linecap="round" stroke-linejoin="round"/>
<path d="M26.7567 78.5255L21.7246 82.1794C21.4251 82.4 21.2021 82.709 21.0871 83.0629C20.9722 83.4167 20.9709 83.7977 21.0836 84.1523L23.0067 90.064C23.1221 90.4208 23.3484 90.7314 23.6527 90.9505C23.957 91.1696 24.3233 91.2858 24.6983 91.282H30.9163C31.288 91.2795 31.6497 91.1607 31.9505 90.9423C32.2513 90.7238 32.4762 90.4167 32.5936 90.064L34.5132 84.1523C34.6258 83.7977 34.6246 83.4167 34.5096 83.0629C34.3947 82.709 34.1717 82.4 33.8721 82.1794L28.8294 78.5255C28.5271 78.3092 28.1647 78.1929 27.7931 78.1929C27.4214 78.1929 27.059 78.3092 26.7567 78.5255V78.5255Z" stroke="#AAAAAA" stroke-linecap="round" stroke-linejoin="round"/>
<path d="M27.1449 78.312L30.6278 76.3996C30.9094 76.275 31.2188 76.2266 31.5251 76.2591C31.8313 76.2916 32.1236 76.4039 32.3728 76.5848L37.4014 80.2422C37.7032 80.4601 37.928 80.7683 38.0432 81.1223C38.1584 81.4763 38.1581 81.8578 38.0424 82.2116L36.1229 88.1269C35.9905 88.5354 35.7131 88.8813 35.3429 89.0991V89.0991L31.7817 91.0436" stroke="#AAAAAA" stroke-linecap="round" stroke-linejoin="round"/>
<path d="M27.1449 78.312L30.6278 76.3996C30.9095 76.275 31.2188 76.2266 31.5251 76.2591C31.8313 76.2916 33.5 76.8996 34 77.2501M38 83.7501L36.1229 88.1269C35.9905 88.5354 35.7131 88.8813 35.3429 89.0991L31.7817 91.0436" stroke="#AAAAAA" stroke-width="2" stroke-linecap="round" stroke-linejoin="round"/>
<path d="M37.5545 83.7642H43.7725C44.1442 83.7617 44.5058 83.6429 44.8067 83.4244C45.1075 83.206 45.3324 82.8989 45.4498 82.5462L47.3694 76.6345C47.4854 76.2801 47.4858 75.8981 47.3706 75.5435C47.2554 75.1889 47.0305 74.8801 46.7283 74.6616L41.6998 71.0077C41.3976 70.7914 41.0352 70.675 40.6635 70.675C40.2918 70.675 39.9294 70.7914 39.6272 71.0077L34.5951 74.6616C34.2961 74.8827 34.0739 75.1918 33.9596 75.5457C33.8452 75.8995 33.8446 76.2803 33.9576 76.6345L34.3565 77.8881" stroke="#AAAAAA" stroke-linecap="round" stroke-linejoin="round"/>
<path d="M26.7567 78.5256L21.7246 82.1795C21.4251 82.4002 21.2021 82.7091 21.0871 83.063C20.9722 83.4168 20.9709 83.7978 21.0836 84.1524L23.0067 90.0642C23.1221 90.4209 23.3484 90.7315 23.6527 90.9506C23.957 91.1697 24.3233 91.2859 24.6983 91.2821H30.9163C31.288 91.2796 31.6497 91.1608 31.9505 90.9424" stroke="#AAAAAA" stroke-width="2" stroke-linecap="round" stroke-linejoin="round"/>
<path d="M38 83.7641H43.7725M39.6272 71.0076L34.5951 74.6614C34 75.2499 34 76.2499 34 77.2499" stroke="#AAAAAA" stroke-width="2" stroke-linecap="round" stroke-linejoin="round"/>
<path d="M40.0118 70.8083L43.4983 68.8959C43.7807 68.774 44.0898 68.7272 44.3957 68.7603C44.7015 68.7934 44.9935 68.9051 45.2433 69.0846L50.2754 72.7385C50.575 72.9592 50.7979 73.2681 50.9129 73.622C51.0278 73.9759 51.0291 74.3568 50.9164 74.7115L48.9933 80.6232C48.8622 81.0313 48.586 81.3772 48.217 81.5954L44.6557 83.5398C44.4371 83.4698 44.6557 83.7001 43.5 83.75" stroke="#AAAAAA" stroke-width="2" stroke-linecap="round" stroke-linejoin="round"/>
<path d="M37.6364 83.5043L41.2475 81.3675C41.2475 81.3675 43.2383 80.0178 42.6257 77.7315C41.9954 75.3632 39.6699 74.9287 37.8679 75.8404L34.2852 77.9772" stroke="#AAAAAA" stroke-linecap="round" stroke-linejoin="round"/>
<rect x="0.5" y="0.5" width="71" height="115" rx="4.5" stroke="#9747FF" stroke-dasharray="10 5"/>
</svg>
