<svg width="24" height="24" viewBox="0 0 24 24" fill="none" xmlns="http://www.w3.org/2000/svg">
<path d="M12.5831 20.028L20.3962 12.3585C22.3157 10.4648 22.5954 7.36858 20.782 5.38966C20.3272 4.89096 19.7736 4.48853 19.155 4.20693C18.5365 3.92534 17.8659 3.77051 17.1843 3.7519C16.5027 3.73329 15.8244 3.8513 15.1908 4.0987C14.5573 4.3461 13.9817 4.71771 13.4994 5.19082L12.0333 6.6395L10.7697 5.38966C8.8405 3.50543 5.68633 3.23084 3.67036 5.01092C3.16233 5.45735 2.75235 6.00077 2.46549 6.60797C2.17863 7.21518 2.0209 7.87343 2.00194 8.54249C1.98298 9.21156 2.10319 9.87739 2.35523 10.4993C2.60726 11.1212 2.98583 11.6862 3.4678 12.1596L11.4834 20.028C11.6298 20.1702 11.8273 20.25 12.0333 20.25C12.2392 20.25 12.4368 20.1702 12.5831 20.028V20.028Z" stroke="#AAAAAA" stroke-width="1.5" stroke-linecap="round" stroke-linejoin="round"/>
</svg>
