<svg width="32" height="32" viewBox="0 0 32 32" fill="none" xmlns="http://www.w3.org/2000/svg">
<path d="M16.6997 27.7309L26.0754 18.4345C28.3788 16.1391 28.7145 12.3862 26.5384 9.98747C25.9926 9.38299 25.3283 8.89518 24.586 8.55386C23.8437 8.21254 23.0391 8.02486 22.2211 8.00231C21.4032 7.97975 20.5893 8.12278 19.829 8.42267C19.0687 8.72255 18.3781 9.17298 17.7993 9.74645L16.0399 11.5024L14.5236 9.98747C12.2086 7.70355 8.4236 7.37072 6.00443 9.52839C5.39479 10.0695 4.90282 10.7282 4.55859 11.4642C4.21435 12.2002 4.02508 12.9981 4.00233 13.8091C3.97958 14.6201 4.12383 15.4271 4.42627 16.181C4.72872 16.9348 5.183 17.6196 5.76136 18.1935L15.3801 27.7309C15.5557 27.9033 15.7928 28 16.0399 28C16.287 28 16.5241 27.9033 16.6997 27.7309V27.7309Z" stroke="#222222" stroke-width="2" stroke-linecap="round" stroke-linejoin="round"/>
<line x1="16" y1="1.5" x2="16" y2="4.5" stroke="#222222" stroke-linecap="round"/>
<line x1="21.183" y1="1.95083" x2="19.683" y2="4.54891" stroke="#222222" stroke-linecap="round"/>
<line x1="12.317" y1="4.54892" x2="10.817" y2="1.95084" stroke="#222222" stroke-linecap="round"/>
</svg>
