<svg width="20" height="20" viewBox="0 0 20 20" fill="none" xmlns="http://www.w3.org/2000/svg">
<path d="M6.95886 18H2.70841C2.52053 18 2.34034 17.9254 2.20749 17.7925C2.07464 17.6597 2 17.4795 2 17.2916V13.3334C1.99968 13.2414 2.0175 13.1502 2.05245 13.0651C2.0874 12.98 2.13879 12.9027 2.20367 12.8375L12.8298 2.21134C12.8957 2.1444 12.9743 2.09125 13.0609 2.05497C13.1476 2.01868 13.2406 2 13.3345 2C13.4285 2 13.5215 2.01868 13.6081 2.05497C13.6948 2.09125 13.7734 2.1444 13.8393 2.21134L17.7887 6.16072C17.8556 6.22663 17.9088 6.3052 17.945 6.39186C17.9813 6.47851 18 6.57151 18 6.66546C18 6.7594 17.9813 6.8524 17.945 6.93906C17.9088 7.02571 17.8556 7.10428 17.7887 7.1702L6.95886 18Z" stroke="#AAAAAA" stroke-linecap="round" stroke-linejoin="round"/>
<path d="M17.585 18H6.95885" stroke="#AAAAAA" stroke-linecap="round" stroke-linejoin="round"/>
<path d="M10.5009 4.54028L15.4598 9.49914" stroke="#AAAAAA" stroke-linecap="round" stroke-linejoin="round"/>
</svg>
