<svg width="72" height="116" viewBox="0 0 72 116" fill="none" xmlns="http://www.w3.org/2000/svg">
<path d="M44.9015 49C43.6087 47.6857 41.7744 45.927 41.7744 45.927C41.7744 45.927 37.4771 47.7124 33.3588 45.6905C29.2404 43.6686 27.5874 41.5768 26.2641 41.4636C24.9407 41.3505 23.8882 40.1246 24.9101 38.4442C25.932 36.7637 25.4517 33.0613 30.6815 27.4687C35.9112 21.8761 39.5799 22.8469 40.7831 23.5298C41.9863 24.2127 42.8996 25.0559 43.5 26C44.1004 26.9441 43.2142 28.6071 41.5 29C39.7858 29.3929 37.1114 29.359 36 27.4687" stroke="#0066FF" stroke-width="2" stroke-miterlimit="10" stroke-linecap="round" stroke-linejoin="round"/>
<path d="M46.1024 35.2395C45.7421 35.2395 43.1567 35.4761 41.0539 38.2076C41.0539 38.2076 37.025 33.5858 32.1555 38.2076C33.175 37.2929 33.792 36.0932 33.898 34.8199C34.1099 32.6396 34.6657 29.2878 36.5 28.5" stroke="#0066FF" stroke-width="2" stroke-miterlimit="10" stroke-linecap="round" stroke-linejoin="round"/>
<path d="M42.0452 40.8323C43.0672 42.776 44.7941 44.2728 47.5 45.4547" stroke="#0066FF" stroke-miterlimit="10" stroke-linecap="round" stroke-linejoin="round"/>
<path d="M46.1024 79.2395C45.7421 79.2395 43.1567 79.4761 41.0539 82.2076C41.0539 82.2076 37.025 77.5858 32.1555 82.2076C33.175 81.2929 33.792 80.0932 33.898 78.8199C34.1099 76.6396 34.6657 73.2878 36.5 72.5" stroke="#AAAAAA" stroke-width="2" stroke-miterlimit="10" stroke-linecap="round" stroke-linejoin="round"/>
<path d="M44.9015 93C43.6087 91.6857 41.7744 89.927 41.7744 89.927C41.7744 89.927 37.4771 91.7124 33.3588 89.6905C29.2404 87.6686 27.5874 85.5768 26.2641 85.4636C24.9407 85.3505 23.8882 84.1246 24.9101 82.4442C25.932 80.7637 25.4517 77.0613 30.6815 71.4687C35.9112 65.8761 39.5799 66.8469 40.7831 67.5298C41.9863 68.2127 42.8996 69.0559 43.5 70C44.1004 70.9441 43.2142 72.6071 41.5 73C39.7858 73.3929 37.1114 73.359 36 71.4687" stroke="#AAAAAA" stroke-width="2" stroke-miterlimit="10" stroke-linecap="round" stroke-linejoin="round"/>
<path d="M42.0452 84.8323C43.0672 86.776 44.7941 88.2728 47.5 89.4547" stroke="#AAAAAA" stroke-miterlimit="10" stroke-linecap="round" stroke-linejoin="round"/>
<rect x="0.5" y="0.5" width="71" height="115" rx="4.5" stroke="#9747FF" stroke-dasharray="10 5"/>
</svg>
