<svg width="24" height="24" viewBox="0 0 24 24" fill="none" xmlns="http://www.w3.org/2000/svg">
<path d="M8.19858 22H2.88552C2.65066 22 2.42543 21.9067 2.25937 21.7406C2.0933 21.5746 2.00001 21.3493 2.00001 21.1145V16.1667C1.9996 16.0517 2.02188 15.9378 2.06557 15.8314C2.10925 15.725 2.17348 15.6283 2.25459 15.5468L15.5373 2.26417C15.6196 2.18051 15.7179 2.11406 15.8262 2.06871C15.9345 2.02336 16.0507 2 16.1682 2C16.2856 2 16.4019 2.02336 16.5102 2.06871C16.6185 2.11406 16.7167 2.18051 16.7991 2.26417L21.7358 7.2009C21.8195 7.28329 21.8859 7.38151 21.9313 7.48982C21.9766 7.59814 22 7.71439 22 7.83182C22 7.94925 21.9766 8.0655 21.9313 8.17382C21.8859 8.28214 21.8195 8.38035 21.7358 8.46275L8.19858 22Z" stroke="#0066FF" stroke-width="1.5" stroke-linecap="round" stroke-linejoin="round"/>
<path d="M21.4812 22H8.19855" stroke="#0066FF" stroke-width="1.5" stroke-linecap="round" stroke-linejoin="round"/>
<path d="M12.6261 5.17554L18.8247 11.3741" stroke="#0066FF" stroke-width="1.5" stroke-linecap="round" stroke-linejoin="round"/>
</svg>
