<svg width="32" height="32" viewBox="0 0 32 32" fill="none" xmlns="http://www.w3.org/2000/svg">
<path d="M24.9015 29C23.6087 27.6857 21.7744 25.927 21.7744 25.927C21.7744 25.927 17.4771 27.7124 13.3588 25.6905C9.24039 23.6686 7.58739 21.5768 6.26405 21.4636C4.94072 21.3505 3.88817 20.1246 4.9101 18.4442C5.93204 16.7637 5.45167 13.0613 10.6815 7.46871C15.9112 1.87609 19.5799 2.84693 20.7831 3.52981C21.9863 4.21269 22.8996 5.0559 23.5 6C24.1004 6.9441 23.2142 8.60714 21.5 9C19.7858 9.39286 17.1114 9.35897 16 7.46871" stroke="#0066FF" stroke-width="2" stroke-miterlimit="10" stroke-linecap="round" stroke-linejoin="round"/>
<path d="M26.1024 15.2395C25.7421 15.2395 23.1567 15.4761 21.0539 18.2076C21.0539 18.2076 17.025 13.5858 12.1555 18.2076C13.175 17.2929 13.792 16.0932 13.898 14.8199C14.1099 12.6396 14.6657 9.28778 16.5 8.5" stroke="#0066FF" stroke-width="2" stroke-miterlimit="10" stroke-linecap="round" stroke-linejoin="round"/>
<path d="M22.0452 20.8323C23.0672 22.776 24.7941 24.2728 27.5 25.4547" stroke="#0066FF" stroke-miterlimit="10" stroke-linecap="round" stroke-linejoin="round"/>
</svg>
