<svg width="16" height="16" viewBox="0 0 16 16" fill="none" xmlns="http://www.w3.org/2000/svg">
<path d="M3.18264 10.8552C2.4871 9.68174 2.24381 8.29474 2.49844 6.95459C2.75307 5.61444 3.48811 4.41332 4.56557 3.57671C5.64303 2.74011 6.98882 2.32555 8.35027 2.41087C9.71172 2.4962 10.9952 3.07553 11.9598 4.04011C12.9244 5.00469 13.5037 6.28818 13.589 7.64963C13.6744 9.01109 13.2598 10.3569 12.4232 11.4343C11.5866 12.5118 10.3855 13.2468 9.04531 13.5015C7.70517 13.7561 6.31816 13.5128 5.14468 12.8173L3.206 13.3662C3.12657 13.3894 3.04235 13.3908 2.96218 13.3703C2.882 13.3498 2.80882 13.3081 2.7503 13.2496C2.69178 13.1911 2.65008 13.1179 2.62958 13.0377C2.60907 12.9576 2.6105 12.8733 2.63373 12.7939L3.18264 10.8552Z" stroke="#AAAAAA" stroke-linecap="round" stroke-linejoin="round"/>
</svg>
