<svg width="16" height="16" viewBox="0 0 16 16" fill="none" xmlns="http://www.w3.org/2000/svg">
<path d="M8.34877 12.8645L13.0366 8.21628C14.1883 7.06859 14.3562 5.1921 13.2681 3.99276C12.9953 3.69052 12.6631 3.44661 12.2919 3.27595C11.9208 3.10529 11.5185 3.01146 11.1095 3.00018C10.7006 2.9889 10.2936 3.06041 9.91343 3.21036C9.53329 3.3603 9.18798 3.58552 8.89858 3.87225L8.01889 4.75024L7.26073 3.99276C6.10323 2.8508 4.21073 2.68438 3.00115 3.76322C2.69633 4.03378 2.45034 4.36312 2.27823 4.73113C2.10611 5.09913 2.01147 5.49807 2.0001 5.90356C1.98872 6.30906 2.06085 6.71259 2.21207 7.08952C2.36329 7.46644 2.59043 7.80883 2.87961 8.09578L7.689 12.8645C7.77678 12.9507 7.89534 12.999 8.01889 12.999C8.14244 12.999 8.26099 12.9507 8.34877 12.8645V12.8645Z" stroke="#AAAAAA" stroke-linecap="round" stroke-linejoin="round"/>
</svg>
