<svg width="24" height="24" viewBox="0 0 24 24" fill="none" xmlns="http://www.w3.org/2000/svg">
<path d="M17.8016 14.407H18.9103C19.2466 14.407 19.5691 14.2728 19.8069 14.034C20.0447 13.7951 20.1783 13.4712 20.1783 13.1334V13.1334C20.1783 12.7956 20.0447 12.4717 19.8069 12.2328C19.5691 11.9939 19.2466 11.8598 18.9103 11.8598L13.3818 12.0712C13.3818 12.0712 14.7315 10.4919 15.2463 8.89778C15.7094 7.46316 15.2798 6 14.1746 6C12.8863 6 13.1602 7.03063 12.3684 8.36082C11.8328 9.26102 11.0071 10.5357 9.99421 11.1481C9.63917 11.3636 9.13501 11.6646 8.81548 12.3279" stroke="#0066FF" stroke-width="1.5" stroke-miterlimit="10" stroke-linecap="round" stroke-linejoin="round"/>
<path d="M17.8017 14.407H19.232C19.5683 14.407 19.8908 14.5412 20.1286 14.78C20.3664 15.0189 20.5 15.3428 20.5 15.6806C20.5 16.0184 20.3664 16.3424 20.1286 16.5812C19.8908 16.8201 19.5683 16.9543 19.232 16.9543H17.227" stroke="#0066FF" stroke-width="1.5" stroke-miterlimit="10" stroke-linecap="round" stroke-linejoin="round"/>
<path d="M17.2269 16.9568H18.9103C19.2466 16.9568 19.5691 17.091 19.8069 17.3298C20.0447 17.5687 20.1783 17.8926 20.1783 18.2304C20.1783 18.5682 20.0447 18.8922 19.8069 19.131C19.5691 19.3699 19.2466 19.5041 18.9103 19.5041H16.4661" stroke="#0066FF" stroke-width="1.5" stroke-miterlimit="10" stroke-linecap="round" stroke-linejoin="round"/>
<path d="M16.4661 19.5063H18.0135C18.3498 19.5063 18.6724 19.6405 18.9102 19.8794C19.1479 20.1182 19.2815 20.4422 19.2815 20.78C19.2815 21.1178 19.1479 21.4417 18.9102 21.6806C18.6724 21.9194 18.3498 22.0536 18.0135 22.0536H10.2858C9.18518 22.0536 8.81796 21.104 8.81796 21.104" stroke="#0066FF" stroke-width="1.5" stroke-miterlimit="10" stroke-linecap="round" stroke-linejoin="round"/>
<rect x="3.5" y="10.25" width="5.3172" height="12.2777" rx="1.5" stroke="#0066FF" stroke-width="1.5"/>
<line x1="14.25" y1="1.75" x2="14.25" y2="2.75" stroke="#0066FF" stroke-width="1.5" stroke-linecap="round"/>
<line x1="11.2255" y1="2.89052" x2="10.7255" y2="2.02449" stroke="#0066FF" stroke-width="1.5" stroke-linecap="round"/>
<line x1="17.5245" y1="2.02452" x2="17.0245" y2="2.89054" stroke="#0066FF" stroke-width="1.5" stroke-linecap="round"/>
</svg>
