<svg width="24" height="24" viewBox="0 0 24 24" fill="none" xmlns="http://www.w3.org/2000/svg">
<path d="M18 3.98134L18.3433 4.64818C18.593 4.51961 18.75 4.26225 18.75 3.98134C18.75 3.70044 18.593 3.44308 18.3433 3.31451L18 3.98134ZM18 20.0187L18.3433 20.6855C18.593 20.5569 18.75 20.2996 18.75 20.0187C18.75 19.7377 18.593 19.4804 18.3433 19.3518L18 20.0187ZM13.875 12C13.875 8.79231 15.6912 6.0134 18.3433 4.64818L17.6567 3.31451C14.5211 4.92864 12.375 8.21275 12.375 12H13.875ZM18.3433 19.3518C15.6912 17.9866 13.875 15.2077 13.875 12H12.375C12.375 15.7873 14.5211 19.0714 17.6567 20.6855L18.3433 19.3518ZM17.6567 19.3518C16.5414 19.926 15.278 20.25 13.9375 20.25V21.75C15.5227 21.75 17.0209 21.3662 18.3433 20.6855L17.6567 19.3518ZM13.9375 20.25C9.42059 20.25 5.75 16.5613 5.75 12H4.25C4.25 17.3798 8.58232 21.75 13.9375 21.75V20.25ZM5.75 12C5.75 7.43871 9.42059 3.75 13.9375 3.75V2.25C8.58232 2.25 4.25 6.62016 4.25 12H5.75ZM13.9375 3.75C15.278 3.75 16.5414 4.07405 17.6567 4.64818L18.3433 3.31451C17.0209 2.63378 15.5227 2.25 13.9375 2.25V3.75Z" fill="white"/>
</svg>
