<svg width="60" height="60" viewBox="0 0 60 60" fill="none" xmlns="http://www.w3.org/2000/svg">
<path d="M45.8466 31.8149C45.2134 31.8149 40.6693 32.2307 36.9736 37.0315C36.9736 37.0315 29.8925 28.9084 21.3339 37.0315C23.1257 35.4238 24.2102 33.3153 24.3965 31.0775C24.769 27.2455 25.7458 21.3543 28.9697 19.9697" stroke="#222222" stroke-width="2" stroke-miterlimit="10" stroke-linecap="round" stroke-linejoin="round"/>
<path d="M43.7359 56C41.4638 53.6899 38.2399 50.599 38.2399 50.599C38.2399 50.599 30.6871 53.7369 23.4487 50.1833C16.2104 46.6296 13.3051 42.9531 10.9793 42.7542C8.65338 42.5554 6.80345 40.4008 8.59958 37.4473C10.3957 34.4937 9.55143 27.9865 18.7432 18.1571C27.9349 8.32762 34.3828 10.0339 36.4976 11.2342C38.6124 12.4344 40.2174 13.9164 41.2727 15.5757C42.3281 17.235 40.7704 20.1579 37.7576 20.8484C34.7447 21.5389 30.0443 21.4794 28.0909 18.1571" stroke="#222222" stroke-width="2" stroke-miterlimit="10" stroke-linecap="round" stroke-linejoin="round"/>
<path d="M38.7159 41.6445C40.512 45.0608 43.5473 47.6916 48.3031 49.7687" stroke="#222222" stroke-width="1.5" stroke-miterlimit="10" stroke-linecap="round" stroke-linejoin="round"/>
<path d="M50.3659 10.3756C49.76 8.33939 47.642 7.19413 45.611 7.77848C44.2779 6.11493 42.4382 4.85407 40.1973 4.3173C37.7408 3.72893 35.2728 4.14025 33.2093 5.24084C30.5516 5.49282 28.1193 6.80127 26.4414 8.86002C26.1285 8.73951 25.8208 8.59745 25.476 8.51487C23.0196 7.92649 20.5516 8.33782 18.488 9.43841C14.386 9.82289 10.7979 12.7228 9.78628 16.9461C9.63144 17.5925 9.55157 18.2113 9.53634 18.8456C8.98243 19.3509 8.54838 20.0215 8.36257 20.7973C7.87226 22.8443 9.13401 24.9008 11.181 25.3912C11.3749 25.4376 11.574 25.4625 11.7783 25.4659C13.1002 27.0812 14.9183 28.3369 17.1161 28.8633C19.314 29.3897 21.5735 29.088 23.4941 28.2037C26.481 28.099 29.2347 26.6853 31.0392 24.3834C31.2926 24.4669 31.5357 24.5935 31.8158 24.6606C34.0568 25.1973 36.2732 24.8852 38.1938 24.001C42.5829 23.8448 46.514 20.8448 47.5875 16.3629C47.6855 15.9535 47.719 15.5286 47.7472 15.1253C49.7834 14.5194 50.9338 12.3799 50.3279 10.3437L50.3659 10.3756Z" fill="white" stroke="#222222" stroke-width="2.5" stroke-linecap="round" stroke-linejoin="round"/>
<path d="M43.2188 15.065L41.8319 10.3919C41.6113 9.64847 42.0445 8.84966 42.7879 8.62902L45.6767 7.77167C47.7159 7.16648 49.8644 8.33159 50.4696 10.3708C51.0748 12.4099 49.9097 14.5584 47.8705 15.1636L44.9817 16.021C44.2383 16.2416 43.4395 15.8084 43.2188 15.065Z" fill="white" stroke="#222222" stroke-width="1.5" stroke-linecap="round" stroke-linejoin="round"/>
<path d="M35.6177 23.817C40.9967 25.1055 46.4016 21.7894 47.6901 16.4104C48.9785 11.0315 45.6624 5.62651 40.2834 4.33811C34.9045 3.04971 29.4995 6.36576 28.2111 11.7447C26.9227 17.1237 30.2388 22.5286 35.6177 23.817Z" fill="white" stroke="#222222" stroke-width="1.5" stroke-linecap="round" stroke-linejoin="round"/>
<path d="M31.8968 24.7028C37.2163 25.977 42.5615 22.6976 43.8356 17.3782C45.1098 12.0587 41.8304 6.71353 36.5109 5.43938C31.1915 4.16523 25.8463 7.4446 24.5722 12.7641C23.298 18.0835 26.5774 23.4287 31.8968 24.7028Z" fill="#222222" stroke="#222222" stroke-width="1.5" stroke-linecap="round" stroke-linejoin="round"/>
<path d="M30.1036 19.0796L28.7167 14.4066C28.4961 13.6631 28.9292 12.8643 29.6727 12.6437L32.5615 11.7863C34.6007 11.1811 36.7492 12.3462 37.3544 14.3854C37.9596 16.4246 36.7945 18.5731 34.7553 19.1783L31.8665 20.0356C31.123 20.2563 30.3242 19.8231 30.1036 19.0796Z" fill="white" stroke="#222222" stroke-width="1.5" stroke-linecap="round" stroke-linejoin="round"/>
<path d="M20.8913 28.0362C26.2703 29.3246 31.6753 26.0085 32.9637 20.6296C34.2521 15.2506 30.936 9.84563 25.5571 8.55723C20.1781 7.26882 14.7731 10.5849 13.4847 15.9638C12.1963 21.3428 15.5124 26.7478 20.8913 28.0362Z" fill="white" stroke="#222222" stroke-width="1.5" stroke-linecap="round" stroke-linejoin="round"/>
<path d="M17.192 28.9271C22.5114 30.2012 27.8566 26.9219 29.1307 21.6024C30.4049 16.2829 27.1255 10.9378 21.8061 9.66362C16.4866 8.38947 11.1414 11.6688 9.86728 16.9883C8.59313 22.3078 11.8725 27.6529 17.192 28.9271Z" fill="#222222" stroke="#222222" stroke-width="1.5" stroke-linecap="round" stroke-linejoin="round"/>
<path d="M12.1041 24.3476L10.7172 19.6745C10.4966 18.9311 10.9298 18.1322 11.6732 17.9116L16.1976 16.5689C18.2367 15.9637 20.3853 17.1288 20.9905 19.1679C21.5957 21.2071 20.4305 23.3556 18.3914 23.9608L13.867 25.3036C13.1236 25.5242 12.3247 25.091 12.1041 24.3476Z" fill="white" stroke="#222222" stroke-width="1.5" stroke-linecap="round" stroke-linejoin="round"/>
<path d="M11.262 25.4335C13.3089 25.9238 15.3657 24.6619 15.8559 22.615C16.3462 20.5682 15.0843 18.5114 13.0375 18.0211C10.9906 17.5309 8.93387 18.7927 8.44359 20.8396C7.95331 22.8865 9.21517 24.9432 11.262 25.4335Z" fill="white" stroke="#222222" stroke-width="1.5" stroke-linecap="round" stroke-linejoin="round"/>
</svg>
