<svg width="120" height="120" viewBox="0 0 120 120" fill="none" xmlns="http://www.w3.org/2000/svg">
<path d="M91.6933 63.63C90.4269 63.63 81.3386 64.4615 73.9471 74.0632C73.9471 74.0632 59.785 57.8169 42.6679 74.0632C46.2514 70.8478 48.4205 66.6307 48.793 62.155C49.5379 54.491 51.4915 42.7087 57.9394 39.9396" stroke="#222222" stroke-width="3" stroke-miterlimit="10" stroke-linecap="round" stroke-linejoin="round"/>
<path d="M87.4718 112C82.9277 107.38 76.4798 101.198 76.4798 101.198C76.4798 101.198 61.3741 107.474 46.8974 100.367C32.4208 93.2593 26.6102 85.9062 21.9585 85.5086C17.3068 85.1109 13.6069 80.8017 17.1992 74.8946C20.7914 68.9876 19.1029 55.9732 37.4863 36.3143C55.8698 16.6554 68.7655 20.068 72.9951 22.4684C77.2248 24.8689 80.4348 27.8329 82.5455 31.1515C84.6561 34.4702 81.5409 40.316 75.5152 41.697C69.4894 43.078 60.0886 42.9588 56.1818 36.3143" stroke="#222222" stroke-width="3" stroke-miterlimit="10" stroke-linecap="round" stroke-linejoin="round"/>
<path d="M77.4317 83.2891C81.024 90.1216 87.0946 95.3832 96.6061 99.5375" stroke="#222222" stroke-width="2.5" stroke-miterlimit="10" stroke-linecap="round" stroke-linejoin="round"/>
<path d="M100.732 20.7511C99.5199 16.6788 95.284 14.3883 91.2219 15.557C88.5557 12.2299 84.8764 9.70814 80.3945 8.63461C75.4817 7.45786 70.5456 8.28051 66.4186 10.4817C61.1032 10.9856 56.2386 13.6025 52.8828 17.72C52.257 17.479 51.6416 17.1949 50.952 17.0297C46.0392 15.853 41.1031 16.6756 36.9761 18.8768C28.772 19.6458 21.5957 25.4455 19.5726 33.8921C19.2629 35.185 19.1031 36.4226 19.0727 37.6912C17.9649 38.7017 17.0968 40.0431 16.7251 41.5945C15.7445 45.6885 18.268 49.8017 22.362 50.7823C22.7499 50.8752 23.1481 50.925 23.5566 50.9317C26.2003 54.1623 29.8365 56.6737 34.2322 57.7266C38.6279 58.7795 43.147 58.1759 46.9881 56.4075C52.9621 56.198 58.4695 53.3705 62.0784 48.7668C62.5852 48.9338 63.0714 49.187 63.6316 49.3212C68.1135 50.3947 72.5464 49.7705 76.3875 48.0021C85.1657 47.6896 93.0279 41.6896 95.175 32.7259C95.3711 31.907 95.4379 31.0573 95.4945 30.2506C99.5668 29.0388 101.868 24.7598 100.656 20.6874L100.732 20.7511Z" fill="white" stroke="#222222" stroke-width="3.5" stroke-linecap="round" stroke-linejoin="round"/>
<path d="M86.4377 30.13L83.6639 20.7838C83.2226 19.2969 84.089 17.6993 85.5759 17.258L91.3535 15.5433C95.4318 14.333 99.7289 16.6632 100.939 20.7415C102.15 24.8198 99.8194 29.1169 95.7411 30.3273L89.9635 32.042C88.4766 32.4832 86.8789 31.6169 86.4377 30.13Z" fill="white" stroke="#222222" stroke-width="2.5" stroke-linecap="round" stroke-linejoin="round"/>
<path d="M71.2354 47.6341C81.9934 50.2109 92.8033 43.5788 95.3801 32.8209C97.9569 22.063 91.3248 11.253 80.5669 8.67622C69.809 6.09941 58.999 12.7315 56.4222 23.4894C53.8454 34.2474 60.4775 45.0573 71.2354 47.6341Z" fill="white" stroke="#222222" stroke-width="2.5" stroke-linecap="round" stroke-linejoin="round"/>
<path d="M63.7937 49.4057C74.4326 51.954 85.1229 45.3952 87.6712 34.7563C90.2195 24.1174 83.6608 13.4271 73.0219 10.8788C62.383 8.33046 51.6926 14.8892 49.1443 25.5281C46.596 36.167 53.1548 46.8574 63.7937 49.4057Z" fill="#222222" stroke="#222222" stroke-width="2.5" stroke-linecap="round" stroke-linejoin="round"/>
<path d="M60.2072 38.1593L57.4334 28.8131C56.9921 27.3262 57.8585 25.7286 59.3454 25.2873L65.123 23.5726C69.2013 22.3623 73.4984 24.6925 74.7088 28.7708C75.9191 32.8491 73.5889 37.1462 69.5106 38.3566L63.733 40.0713C62.2461 40.5125 60.6485 39.6462 60.2072 38.1593Z" fill="white" stroke="#222222" stroke-width="2.5" stroke-linecap="round" stroke-linejoin="round"/>
<path d="M41.7827 56.0723C52.5406 58.6491 63.3505 52.017 65.9274 41.2591C68.5042 30.5012 61.8721 19.6913 51.1141 17.1145C40.3562 14.5376 29.5463 21.1697 26.9695 31.9277C24.3927 42.6856 31.0248 53.4955 41.7827 56.0723Z" fill="white" stroke="#222222" stroke-width="2.5" stroke-linecap="round" stroke-linejoin="round"/>
<path d="M34.3839 57.8542C45.0228 60.4025 55.7132 53.8437 58.2615 43.2048C60.8098 32.5659 54.251 21.8755 43.6121 19.3272C32.9732 16.7789 22.2829 23.3377 19.7346 33.9766C17.1863 44.6155 23.745 55.3059 34.3839 57.8542Z" fill="#222222" stroke="#222222" stroke-width="2.5" stroke-linecap="round" stroke-linejoin="round"/>
<path d="M24.2082 48.6952L21.4344 39.349C20.9931 37.8621 21.8595 36.2645 23.3464 35.8232L32.3952 33.1377C36.4735 31.9273 40.7706 34.2575 41.9809 38.3359C43.1913 42.4142 40.8611 46.7113 36.7828 47.9216L27.734 50.6071C26.2471 51.0484 24.6495 50.1821 24.2082 48.6952Z" fill="white" stroke="#222222" stroke-width="2.5" stroke-linecap="round" stroke-linejoin="round"/>
<path d="M22.5241 50.867C26.6178 51.8475 30.7313 49.3238 31.7119 45.2301C32.6924 41.1364 30.1687 37.0229 26.075 36.0423C21.9812 35.0617 17.8677 37.5855 16.8872 41.6792C15.9066 45.7729 18.4303 49.8864 22.5241 50.867Z" fill="white" stroke="#222222" stroke-width="2.5" stroke-linecap="round" stroke-linejoin="round"/>
</svg>
