<svg width="32" height="32" viewBox="0 0 32 32" fill="none" xmlns="http://www.w3.org/2000/svg">
<path d="M10.9314 29.3334H3.84734C3.53421 29.3334 3.2339 29.209 3.01248 28.9876C2.79106 28.7662 2.66666 28.4659 2.66666 28.1527V21.5557C2.66613 21.4024 2.69583 21.2504 2.75408 21.1086C2.81232 20.9668 2.89797 20.8379 3.00611 20.7292L20.7163 3.01898C20.8262 2.90742 20.9571 2.81883 21.1016 2.75836C21.246 2.69789 21.401 2.66675 21.5576 2.66675C21.7141 2.66675 21.8691 2.69789 22.0136 2.75836C22.158 2.81883 22.2889 2.90742 22.3988 3.01898L28.9811 9.60128C29.0926 9.71114 29.1812 9.84209 29.2417 9.98651C29.3022 10.1309 29.3333 10.2859 29.3333 10.4425C29.3333 10.5991 29.3022 10.7541 29.2417 10.8985C29.1812 11.0429 29.0926 11.1739 28.9811 11.2837L10.9314 29.3334Z" stroke="white" stroke-width="1.5" stroke-linecap="round" stroke-linejoin="round"/>
<path d="M28.6416 29.3335H10.9314" stroke="white" stroke-width="1.5" stroke-linecap="round" stroke-linejoin="round"/>
<path d="M16.8348 6.90063L25.0996 15.1654" stroke="white" stroke-width="1.5" stroke-linecap="round" stroke-linejoin="round"/>
</svg>
