<svg width="24" height="24" viewBox="0 0 24 24" fill="none" xmlns="http://www.w3.org/2000/svg">
<path d="M13.5574 22H10.4427" stroke="white" stroke-width="1.5" stroke-linecap="round" stroke-linejoin="round"/>
<path d="M11.5134 2.17604C9.66405 3.65168 3.48344 9.55422 8.88539 18.8934H15.1147C20.4096 9.55422 14.3165 3.66139 12.4867 2.17604C12.3502 2.06231 12.1779 2 12 2C11.8221 2 11.6499 2.06231 11.5134 2.17604Z" stroke="white" stroke-width="1.5" stroke-linecap="round" stroke-linejoin="round"/>
<path d="M6.73432 11.0686L3.67808 14.7189C3.60109 14.8085 3.54676 14.9152 3.51966 15.03C3.49257 15.1449 3.49349 15.2646 3.52235 15.379L4.71954 20.7864C4.74843 20.915 4.80962 21.0341 4.89736 21.1325C4.9851 21.231 5.0965 21.3055 5.22109 21.3492C5.34568 21.3929 5.47936 21.4043 5.60957 21.3823C5.73977 21.3602 5.86222 21.3055 5.96539 21.2233L8.88537 18.8934" stroke="white" stroke-width="1.5" stroke-linecap="round" stroke-linejoin="round"/>
<path d="M17.2072 10.991L20.3219 14.7189C20.3989 14.8085 20.4532 14.9152 20.4803 15.0301C20.5074 15.1449 20.5065 15.2646 20.4776 15.379L19.2804 20.7865C19.2515 20.915 19.1903 21.0341 19.1026 21.1325C19.0149 21.231 18.9035 21.3056 18.7789 21.3493C18.6543 21.393 18.5206 21.4043 18.3904 21.3823C18.2602 21.3603 18.1377 21.3056 18.0346 21.2233L15.1146 18.8934" stroke="white" stroke-width="1.5" stroke-linecap="round" stroke-linejoin="round"/>
<path d="M12 10.7386C12.645 10.7386 13.168 10.2171 13.168 9.57367C13.168 8.93027 12.645 8.40869 12 8.40869C11.3549 8.40869 10.832 8.93027 10.832 9.57367C10.832 10.2171 11.3549 10.7386 12 10.7386Z" fill="white"/>
</svg>
