<svg width="32" height="32" viewBox="0 0 32 32" fill="none" xmlns="http://www.w3.org/2000/svg">
<path d="M6.75672 14.5255L1.72464 18.1794C1.42506 18.4 1.20212 18.709 1.08715 19.0629C0.972171 19.4167 0.970935 19.7977 1.08361 20.1523L3.0067 26.064C3.12206 26.4208 3.34839 26.7314 3.6527 26.9505C3.957 27.1696 4.32335 27.2858 4.6983 27.282H10.9163C11.288 27.2795 11.6497 27.1607 11.9505 26.9423C12.2513 26.7238 12.4762 26.4167 12.5936 26.064L14.5132 20.1523C14.6258 19.7977 14.6246 19.4167 14.5096 19.0629C14.3947 18.709 14.1717 18.4 13.8721 18.1794L8.82938 14.5255C8.52712 14.3092 8.16475 14.1929 7.79305 14.1929C7.42136 14.1929 7.05898 14.3092 6.75672 14.5255V14.5255Z" stroke="#AAAAAA" stroke-linecap="round" stroke-linejoin="round"/>
<path d="M7.14489 14.312L10.6278 12.3996C10.9094 12.275 11.2188 12.2266 11.5251 12.2591C11.8313 12.2916 12.1236 12.4039 12.3728 12.5848L17.4014 16.2422C17.7032 16.4601 17.928 16.7683 18.0432 17.1223C18.1584 17.4763 18.1581 17.8578 18.0424 18.2116L16.1229 24.1269C15.9905 24.5354 15.7131 24.8813 15.3429 25.0991V25.0991L11.7817 27.0436" stroke="#AAAAAA" stroke-linecap="round" stroke-linejoin="round"/>
<path d="M7.1449 14.312L10.6278 12.3996C10.9095 12.275 11.2188 12.2266 11.5251 12.2591C11.8313 12.2916 13.5 12.8996 14 13.2501M18 19.7501L16.1229 24.1269C15.9905 24.5354 15.7131 24.8813 15.3429 25.0991L11.7817 27.0436" stroke="#AAAAAA" stroke-width="2" stroke-linecap="round" stroke-linejoin="round"/>
<path d="M17.5545 19.7642H23.7725C24.1442 19.7617 24.5058 19.6429 24.8067 19.4244C25.1075 19.206 25.3324 18.8989 25.4498 18.5462L27.3694 12.6345C27.4854 12.2801 27.4858 11.8981 27.3706 11.5435C27.2554 11.1889 27.0305 10.8801 26.7283 10.6616L21.6998 7.00769C21.3976 6.79136 21.0352 6.67505 20.6635 6.67505C20.2918 6.67505 19.9294 6.79136 19.6272 7.00769L14.5951 10.6616C14.2961 10.8827 14.0739 11.1918 13.9596 11.5457C13.8452 11.8995 13.8446 12.2803 13.9576 12.6345L14.3565 13.8881" stroke="#AAAAAA" stroke-linecap="round" stroke-linejoin="round"/>
<path d="M6.75672 14.5256L1.72464 18.1795C1.42506 18.4002 1.20212 18.7091 1.08715 19.063C0.972171 19.4168 0.970935 19.7978 1.08361 20.1524L3.0067 26.0642C3.12206 26.4209 3.34839 26.7315 3.6527 26.9506C3.957 27.1697 4.32335 27.2859 4.6983 27.2821H10.9163C11.288 27.2796 11.6497 27.1608 11.9505 26.9424" stroke="#AAAAAA" stroke-width="2" stroke-linecap="round" stroke-linejoin="round"/>
<path d="M18 19.7641H23.7725M19.6272 7.00757L14.5951 10.6614C14 11.2499 14 12.2499 14 13.2499" stroke="#AAAAAA" stroke-width="2" stroke-linecap="round" stroke-linejoin="round"/>
<path d="M20.0118 6.8083L23.4983 4.8959C23.7807 4.77395 24.0898 4.72725 24.3957 4.76033C24.7015 4.7934 24.9935 4.90514 25.2433 5.08464L30.2754 8.73851C30.575 8.95917 30.7979 9.26813 30.9129 9.62199C31.0278 9.97586 31.0291 10.3568 30.9164 10.7115L28.9933 16.6232C28.8622 17.0313 28.586 17.3772 28.217 17.5954L24.6557 19.5398C24.4371 19.4698 24.6557 19.7001 23.5 19.75" stroke="#AAAAAA" stroke-width="2" stroke-linecap="round" stroke-linejoin="round"/>
<path d="M17.6364 19.5043L21.2475 17.3675C21.2475 17.3675 23.2383 16.0178 22.6257 13.7315C21.9954 11.3632 19.6699 10.9287 17.8679 11.8404L14.2852 13.9772" stroke="#AAAAAA" stroke-linecap="round" stroke-linejoin="round"/>
</svg>
